<svg width="64" height="64" viewBox="0 0 256 256" xmlns="http://www.w3.org/2000/svg" fill="none">
  <defs>
    <linearGradient id="favG1" x1="0" y1="0" x2="1" y2="1">
      <stop offset="0%" stop-color="#1F7F6B"/>
      <stop offset="100%" stop-color="#2FAE93"/>
    </linearGradient>
    <linearGradient id="favG2" x1="0" y1="0" x2="1" y2="1">
      <stop offset="0%" stop-color="#E28A3D"/>
      <stop offset="100%" stop-color="#C96D1F"/>
    </linearGradient>
  </defs>

  <rect x="8" y="8" width="240" height="240" rx="56" fill="#F5F2E8"/>

  <path d="M38 128c0-26 21-47 47-47 20 0 34 11 47 26l13 16-13 16c-13 15-27 26-47 26-26 0-47-21-47-47z"
        stroke="url(#favG1)" stroke-width="18" stroke-linecap="round" stroke-linejoin="round"/>
  <path d="M218 128c0-26-21-47-47-47-20 0-34 11-47 26l-13 16 13 16c13 15 27 26 47 26 26 0 47-21 47-47z"
        stroke="url(#favG2)" stroke-width="18" stroke-linecap="round" stroke-linejoin="round"/>
</svg>
