<svg width="520" height="160" viewBox="0 0 520 160" xmlns="http://www.w3.org/2000/svg" fill="none">
  <defs>
    <linearGradient id="g1" x1="0" y1="0" x2="1" y2="1">
      <stop offset="0%" stop-color="#1F7F6B"/>
      <stop offset="100%" stop-color="#2FAE93"/>
    </linearGradient>
    <linearGradient id="g2" x1="0" y1="0" x2="1" y2="1">
      <stop offset="0%" stop-color="#E28A3D"/>
      <stop offset="100%" stop-color="#C96D1F"/>
    </linearGradient>
  </defs>

  <path d="M54 80c0-16.6 13.4-30 30-30 12.9 0 21.5 7 29.5 16.8l8.5 10.4-8.5 10.4C105.5 97 96.9 104 84 104c-16.6 0-30-13.4-30-30z"
        stroke="url(#g1)" stroke-width="14" stroke-linecap="round" stroke-linejoin="round"/>
  <path d="M194 80c0-16.6-13.4-30-30-30-12.9 0-21.5 7-29.5 16.8l-8.5 10.4 8.5 10.4C142.5 97 151.1 104 164 104c16.6 0 30-13.4 30-30z"
        stroke="url(#g2)" stroke-width="14" stroke-linecap="round" stroke-linejoin="round"/>

  <path d="M98 64c12 0 18 6 28 16s16 16 28 16"
        stroke="#1F7F6B" stroke-opacity=".45" stroke-width="6" stroke-linecap="round"/>

  <text x="238" y="94" font-family="Space Grotesk, Noto Sans KR, sans-serif"
        font-size="54" font-weight="700" fill="#16322D" letter-spacing="0.5">always</text>
</svg>
